<svg width="680" height="180" viewBox="0 0 680 180" fill="none" xmlns="http://www.w3.org/2000/svg">
<g clip-path="url(#clip0_2775_184)">
<rect width="680" height="180" fill="white"/>
<path d="M60 90C60 84.48 64.48 80 70 80H150C155.52 80 160 75.52 160 70C160 64.48 155.52 60 150 60H60V40H150C166.57 40 180 53.43 180 70C180 86.57 166.57 100 150 100H141.51L180 140H152.78L114.29 100H80V140H60V90ZM220 40H200V140H220V40ZM260 80H240V140H310C337.61 140 360 117.61 360 90C360 62.39 337.61 40 310 40H240V60H310C326.57 60 340 73.43 340 90C340 106.57 326.57 120 310 120H260V80ZM370 60H490V40H370V60ZM370 100H490V80H370V100ZM370 140H490V120H370V140ZM547.45 90.54L500 140H527.54L561.22 105.2L592.46 140H620L574.99 90.54L660 0H632.46L561.22 75.87L527.54 40H500L547.45 90.54Z" fill="#02070D"/>
</g>
<defs>
<clipPath id="clip0_2775_184">
<rect width="680" height="180" fill="white"/>
</clipPath>
</defs>
</svg>
